<svg width="156" height="106" viewBox="0 0 156 106" fill="none" xmlns="http://www.w3.org/2000/svg">
<g filter="url(#filter0_d_671_2201)">
<path d="M13 29C13 20.1634 20.1634 13 29 13H127C135.837 13 143 20.1634 143 29V76.9993C143 85.8358 135.837 92.9993 127 92.9993H29C20.1634 92.9993 13 85.8358 13 76.9993V29Z" fill="#1D1F2D"/>
<path d="M13.8182 29C13.8182 20.6153 20.6153 13.8182 29 13.8182H127C135.385 13.8182 142.182 20.6153 142.182 29V76.9993C142.182 85.384 135.385 92.1811 127 92.1811H29C20.6153 92.1811 13.8182 85.384 13.8182 76.9993V29Z" stroke="#41D691" stroke-width="1.63635"/>
</g>
<defs>
<filter id="filter0_d_671_2201" x="0.727339" y="0.727339" width="154.545" height="104.545" filterUnits="userSpaceOnUse" color-interpolation-filters="sRGB">
<feFlood flood-opacity="0" result="BackgroundImageFix"/>
<feColorMatrix in="SourceAlpha" type="matrix" values="0 0 0 0 0 0 0 0 0 0 0 0 0 0 0 0 0 0 127 0" result="hardAlpha"/>
<feOffset/>
<feGaussianBlur stdDeviation="6.13633"/>
<feComposite in2="hardAlpha" operator="out"/>
<feColorMatrix type="matrix" values="0 0 0 0 0.0823529 0 0 0 0 0.886275 0 0 0 0 0.54902 0 0 0 0.6 0"/>
<feBlend mode="normal" in2="BackgroundImageFix" result="effect1_dropShadow_671_2201"/>
<feBlend mode="normal" in="SourceGraphic" in2="effect1_dropShadow_671_2201" result="shape"/>
</filter>
</defs>
</svg>
