<svg width="42" height="41" viewBox="0 0 42 41" fill="none" xmlns="http://www.w3.org/2000/svg">
<path d="M21.1252 40.688C32.4218 40.688 41.5795 31.7536 41.5795 20.7325C41.5795 9.71145 32.4218 0.7771 21.1252 0.7771C9.82861 0.7771 0.670898 9.71145 0.670898 20.7325C0.670898 31.7536 9.82861 40.688 21.1252 40.688Z" fill="#21D589"/>
<path d="M9.35305 20.7845C11.7442 19.4995 14.4133 18.4271 16.9072 17.3492C21.1976 15.5836 25.5051 13.8487 29.8561 12.2334C30.7026 11.9582 32.2237 11.6891 32.3729 12.9131C32.291 14.6455 31.9552 16.3679 31.7248 18.0902C31.14 21.8777 30.4638 25.6523 29.8046 29.4274C29.5774 30.6847 27.9629 31.3358 26.9298 30.5311C24.447 28.8947 21.9451 27.2747 19.494 25.6004C18.6911 24.8045 19.4357 23.6614 20.1526 23.093C22.1975 21.1269 24.3662 19.4565 26.3042 17.3888C26.827 16.1572 25.2824 17.1952 24.7729 17.5133C21.9734 19.3954 19.2424 21.3925 16.2908 23.0466C14.7832 23.8563 13.026 23.1644 11.519 22.7124C10.1678 22.1667 8.18783 21.6168 9.35288 20.7847L9.35305 20.7845Z" fill="#1D1F2D"/>
</svg>
