<svg width="20" height="20" viewBox="0 0 20 20" fill="none" xmlns="http://www.w3.org/2000/svg">
<path d="M10 0C4.4775 0 0 4.4775 0 10C0 15.5225 4.4775 20 10 20C15.5225 20 20 15.5225 20 10C20 4.4775 15.5225 0 10 0ZM10.7509 12.3133C9.48019 13.5841 7.41984 13.5841 6.14917 12.3132L4.73231 10.8962C4.24432 10.4081 4.24435 9.6169 4.73237 9.12888C5.22049 8.64076 6.01192 8.64084 6.49993 9.12907L7.03281 9.66219C7.81511 10.4448 9.08378 10.445 9.86625 9.6625L13.5762 5.95252C14.0643 5.46443 14.8557 5.46443 15.3438 5.95252C15.8318 6.4406 15.8319 7.23192 15.3438 7.72002L10.7509 12.3133Z" fill="#21D589"/>
</svg>
